<?xml version="1.0" standalone="no"?>
<!DOCTYPE svg PUBLIC "-//W3C//DTD SVG 1.1//EN" "http://www.w3.org/Graphics/SVG/1.1/DTD/svg11.dtd">
<svg xmlns="http://www.w3.org/2000/svg">
<metadata>Copyright (C) 2018 by original authors @ fontello.com</metadata>
<defs>
<font id="bazaautozvyka" horiz-adv-x="1000" >
<font-face font-family="bazaautozvyka" font-weight="400" font-stretch="normal" units-per-em="1000" ascent="850" descent="-150" />
<missing-glyph horiz-adv-x="1000" />
<glyph glyph-name="right-open" unicode="&#xe800;" d="M618 361l-414-415q-11-10-25-10t-25 10l-93 93q-11 11-11 25t11 25l296 297-296 296q-11 11-11 25t11 25l93 93q10 11 25 11t25-11l414-414q10-11 10-25t-10-25z" horiz-adv-x="714.3" />

<glyph glyph-name="left-open" unicode="&#xe801;" d="M654 682l-297-296 297-297q10-10 10-25t-10-25l-93-93q-11-10-25-10t-25 10l-414 415q-11 10-11 25t11 25l414 414q10 11 25 11t25-11l93-93q10-10 10-25t-10-25z" horiz-adv-x="714.3" />

<glyph glyph-name="done" unicode="&#xe803;" d="M18 456a63 63 0 0 0 89 0l495-496a64 64 0 0 0 0-88 63 63 0 0 0-89 0l-495 495a64 64 0 0 0 0 89z m1463 376a63 63 0 0 1-89 0l-872-872a64 64 0 0 1 0-88 63 63 0 0 1 89 0l872 872a64 64 0 0 1 0 88z" horiz-adv-x="1502" />

<glyph glyph-name="balance" unicode="&#xe804;" d="M1385 401l-221 381a32 32 0 0 1-31 22h-367a79 79 0 0 1-144 0h-367a32 32 0 0 1-29-19l-2-2-221-382a33 33 0 0 1-3-26c0-3 0-5 0-8a252 252 0 1 1 504 0c0 3 0 5 0 8a33 33 0 0 1-3 26l-195 337h314a81 81 0 0 1 42-44v-778h-249a33 33 0 0 1 0-66h562a33 33 0 0 1 0 66h-249v778a81 81 0 0 1 43 44h313l-195-337a33 33 0 0 1-3-26c0-3 0-5 0-8a252 252 0 1 1 504 0c0 3 0 5 0 8a33 33 0 0 1-3 26z m-1133-225a176 176 0 0 0-187 174h374a176 176 0 0 0-187-174z m165 240h-330l165 285z m307 352a30 30 0 1 0-30 31 30 30 0 0 0 30-31z m412-66l165-286h-331z m0-526a176 176 0 0 0-188 174h375a176 176 0 0 0-187-174z" horiz-adv-x="1389" />

<glyph glyph-name="star" unicode="&#xe805;" d="M533 850l176-314 357-68-249-262 46-356-330 152-329-152 45 356-249 262 357 68 176 314" horiz-adv-x="1066" />

<glyph glyph-name="chat" unicode="&#xe806;" d="M927 850h-763a165 165 0 0 1-164-165v-493a165 165 0 0 1 164-165h421l150-154a79 79 0 0 1 56-23h0a80 80 0 0 1 79 80v96h57a165 165 0 0 1 164 166v493a165 165 0 0 1-164 165z m-825-658v493a62 62 0 0 0 61 61h764a62 62 0 0 0 61-61l1-14v-479a61 61 0 0 0-61-62h-109a52 52 0 0 1-51-52v-91l-127 128a51 51 0 0 1-36 16h-441a62 62 0 0 0-62 61z m689-328h0z" horiz-adv-x="1091" />

<glyph glyph-name="twitter" unicode="&#xe807;" d="M1309 731a570 570 0 0 0-154-40 256 256 0 0 1 117 140 553 553 0 0 0-170-61 275 275 0 0 1-196 79 261 261 0 0 1-268-252 237 237 0 0 1 7-58 778 778 0 0 0-553 264 241 241 0 0 1-37-127 250 250 0 0 1 120-210 280 280 0 0 0-122 32v-4a257 257 0 0 1 216-247 276 276 0 0 0-71-9 290 290 0 0 0-51 4 268 268 0 0 1 251-175 560 560 0 0 0-333-108 581 581 0 0 0-64 3 795 795 0 0 1 411-113 735 735 0 0 1 763 719c0 10 0 21 0 32a535 535 0 0 1 134 131" horiz-adv-x="1308" />

<glyph glyph-name="facebook" unicode="&#xe808;" d="M-1 519h102v101a272 272 0 0 0 33 155 179 179 0 0 0 157 75 628 628 0 0 0 181-19l-25-152a337 337 0 0 1-82 12 62 62 0 0 1-74-55v-116h161l-11-150h-150v-520h-190v520h-102v149z" horiz-adv-x="472" />

<glyph glyph-name="vk" unicode="&#xe809;" d="M1456 149a1452 1452 0 0 0 166-204 5 5 0 0 0 1-3 60 60 0 0 0 10-57 86 86 0 0 0-61-35h-234a159 159 0 0 0-92 35 596 596 0 0 0-92 100 225 225 0 0 1-125 105 43 43 0 0 1-14-3c-30-10-69-55-69-177a56 56 0 0 0-48-60h-106a563 563 0 0 0-396 203c-206 233-391 699-393 703a35 35 0 0 0 39 47h236a49 49 0 0 0 49-39 1680 1680 0 0 1 90-200c82-154 133-217 173-217a43 43 0 0 1 22 6c53 31 43 233 40 274a289 289 0 0 1-26 129 117 117 0 0 1-73 44 97 97 0 0 0 31 28 412 412 0 0 0 166 22h36a372 372 0 0 0 114-13c51-13 52-48 47-170-1-34-2-73-2-119v-32a193 193 0 0 1 37-161 34 34 0 0 1 18-6c14 0 56 0 173 213a1697 1697 0 0 1 92 212 74 74 0 0 0 18 23 36 36 0 0 0 19 5h278a56 56 0 0 0 55-17c6-20-2-81-129-264-21-31-40-57-56-80-115-161-115-169 6-292h0z" horiz-adv-x="1636" />

<glyph glyph-name="google" unicode="&#xe80a;" d="M0 375a499 499 0 0 0 499 475 507 507 0 0 0 333-124 1781 1781 0 0 0-127-131 329 329 0 0 1-388 10 320 320 0 0 1-13-499c151-138 438-69 480 142-95 1-190 0-285 3 0 57-1 114 0 171 158 0 317 0 477-1a575 575 0 0 0-90-387 493 493 0 0 0-569-151 501 501 0 0 0-317 492z m1286 190h142c0-47 1-95 1-143 47 0 95 0 142-1v-142c-47 0-95 0-142-1 0-48-1-95-1-143h-142c-1 48-1 95-1 143l-143 2v141c47 1 95 1 143 1 0 48 1 96 1 143z" horiz-adv-x="1571" />

<glyph glyph-name="youtube" unicode="&#xe80b;" d="M654 850c-642 0-654-57-654-500s12-500 654-500 654 57 654 500-12 500-654 500h0z m209-522l-293-136a31 31 0 0 0-47 30v256a31 31 0 0 0 47 30l293-136c26-12 26-32 0-44z" horiz-adv-x="1308" />

<glyph glyph-name="instagram" unicode="&#xe80c;" d="M500 760c134 0 149-1 202-3a277 277 0 0 0 93-17 155 155 0 0 0 57-38 158 158 0 0 0 38-57 291 291 0 0 0 17-93c2-53 3-68 3-202s-1-149-3-202a292 292 0 0 0-17-93 158 158 0 0 0-38-57 155 155 0 0 0-57-38 278 278 0 0 0-93-17c-53-2-68-3-202-3s-149 1-202 3a278 278 0 0 0-93 17 155 155 0 0 0-57 38 158 158 0 0 0-38 57 292 292 0 0 0-17 93c-2 53-3 69-3 202s1 149 3 202a291 291 0 0 0 17 93 158 158 0 0 0 38 57 155 155 0 0 0 57 38 277 277 0 0 0 93 17c53 2 69 3 202 3m0 90c-136 0-153-1-206-3a368 368 0 0 1-122-23 242 242 0 0 1-88-58 235 235 0 0 1-57-89 365 365 0 0 1-24-121c-2-53-3-71-3-206s1-153 3-206a365 365 0 0 1 24-121 234 234 0 0 1 57-89 243 243 0 0 1 88-57 369 369 0 0 1 122-24c53-2 70-3 206-3s153 1 206 3a369 369 0 0 1 122 24 243 243 0 0 1 88 57 234 234 0 0 1 58 89 365 365 0 0 1 23 121c2 53 3 71 3 206s-1 153-3 206a365 365 0 0 1-23 121 235 235 0 0 1-58 89 242 242 0 0 1-88 58 368 368 0 0 1-122 23c-53 2-70 3-206 3m0-243a257 257 0 1 1 257-257 257 257 0 0 1-257 257m0-424a167 167 0 1 0 167 167 167 167 0 0 0-167-167m327 434a60 60 0 1 0-60 60 60 60 0 0 0 60-60" horiz-adv-x="1000" />

<glyph glyph-name="lock" unicode="&#xe80d;" d="M704 514h-483v152a98 98 0 0 0 96 101h167a98 98 0 0 0 95-101v-9a40 40 0 1 1 79 0v9a180 180 0 0 1-174 184h-167a180 180 0 0 1-174-184v-154h-61a85 85 0 0 1-82-86v-490a85 85 0 0 1 82-86h622a85 85 0 0 1 82 86v490a85 85 0 0 1-82 88z m3-578a4 4 0 0 0-3-3h-621a3 3 0 0 0-3 3v490a4 4 0 0 0 3 3h622a3 3 0 0 0 3-3v-490h-1z m-313 333a94 94 0 1 0-90-93 91 91 0 0 0 90 93z" horiz-adv-x="786" />

<glyph glyph-name="coub" unicode="&#xe80e;" d="M151 24a78 78 0 0 1 68 76c0 55-46 87-107 87a135 135 0 0 1-108-51l22-25a106 106 0 0 0 83 39c39 0 71-19 71-55 0-38-34-54-74-54-12 0-27 0-32 0v-37c5 1 19 1 32 1 47 0 79-17 79-58 0-38-28-61-74-61a108 108 0 0 0-88 43l-23-26a132 132 0 0 1 112-53c70 0 112 39 112 94a81 81 0 0 1-73 80z m243 158h-107v-326h107a163 163 0 0 1 0 326z m0-290h-68v253h68c78 0 121-56 121-127a118 118 0 0 0-121-126z m146 514l-1 286 0 2a21 21 0 0 1-9 16l-230 138a20 20 0 0 1-21 0l-240-144-3-2a21 21 0 0 1-7-16l0-286a21 21 0 0 1 11-18l230-138a20 20 0 0 1 12-3l1 0 247 147a21 21 0 0 1 10 18z m-40 12l-201-120 0 238 200 120z m-21 274l-200-120-190 114 200 120z m-410-42l189-114 1-238-190 114z" horiz-adv-x="556" />

<glyph glyph-name="play" unicode="&#xe80f;" d="M500-150a500 500 0 1 0 501 501 501 501 0 0 0-501-501z m0 942a442 442 0 1 1 442-442 443 443 0 0 1-442 442z m-135-655v426l370-213z m58 326v-225l195 112z" horiz-adv-x="1000" />

<glyph glyph-name="question" unicode="&#xe810;" d="M500 851a500 500 0 1 1 500-500 501 501 0 0 1-500 500z m416-500a415 415 0 1 0-416 415 416 416 0 0 0 416-415z m-416-178a46 46 0 1 1 46-46 47 47 0 0 1-46 46z m8 425a202 202 0 0 1-164-77l-3-4 45-48 4 5a131 131 0 0 0 112 58 69 69 0 0 0 82-62 103 103 0 0 0-60-77 130 130 0 0 1-74-103 83 83 0 0 1 31-64l3-2 57 24-8 6a44 44 0 0 0-18 32 98 98 0 0 0 58 69 150 150 0 0 1 85 124 131 131 0 0 1-150 119z" horiz-adv-x="1000" />

<glyph glyph-name="spread" unicode="&#xe811;" d="M768 532a180 180 0 0 1-140-67l-281 152a170 170 0 0 1 11 57 179 179 0 1 1-179-176 180 180 0 0 1 140 67l280-152a163 163 0 0 1 9-134l-280-157a180 180 0 0 1-149 79 176 176 0 1 1 179-176 171 171 0 0 1-6 43l291 163a181 181 0 0 1 125-50 176 176 0 1 1 0 351z m-589 25a117 117 0 1 0 119 117 118 118 0 0 0-119-117z m0-648a117 117 0 1 0 119 116 118 118 0 0 0-119-116z m589 331a117 117 0 1 0 119 117 118 118 0 0 0-119-117z" horiz-adv-x="947" />

<glyph glyph-name="like" unicode="&#xe812;" d="M1081 533a71 71 0 0 1-55 31h-237a292 292 0 0 1-30 179 151 151 0 0 1-144 107 122 122 0 0 1-107-69 558 558 0 0 1-9-148l-104-190-8-3a81 81 0 0 1-65 74h-263a78 78 0 0 1-59-86v-523a53 53 0 0 1 59-55h263a56 56 0 0 1 66 55v42a376 376 0 0 1 144-48h349c1 0 3 0 4 0a131 131 0 0 1 130 78c22 54 99 371 108 408a222 222 0 0 1-42 148z m-768-607h-238v502a55 55 0 0 0 2 10h232a50 50 0 0 0 4-10v-502z m737 477c-24-97-88-355-105-397a69 69 0 0 0-71-31h-342a436 436 0 0 0-143 59v325l58 24 128 231-1 11a607 607 0 0 0 5 129 58 58 0 0 0 45 20 92 92 0 0 0 67-63c50-110 16-157 15-158l3-2a39 39 0 0 1-10-25 38 38 0 0 1 38-38h284a160 160 0 0 0 29-85z" horiz-adv-x="1125" />

<glyph glyph-name="up-open" unicode="&#xe813;" d="M939 107l-92-92q-11-10-26-10t-25 10l-296 297-296-297q-11-10-25-10t-25 10l-93 92q-11 11-11 26t11 25l414 414q11 10 25 10t25-10l414-414q11-11 11-25t-11-26z" horiz-adv-x="1000" />

<glyph glyph-name="down-open" unicode="&#xe814;" d="M939 399l-414-413q-10-11-25-11t-25 11l-414 413q-11 11-11 26t11 25l93 92q10 11 25 11t25-11l296-296 296 296q11 11 25 11t26-11l92-92q11-11 11-25t-11-26z" horiz-adv-x="1000" />

<glyph glyph-name="chart-bar" unicode="&#xe815;" d="M180 516l0-538-180 0 0 538 180 0z m250-138l0-400-180 0 0 400 180 0z m250 344l0-744-180 0 0 744 180 0z" horiz-adv-x="680" />

<glyph glyph-name="article" unicode="&#xe816;" d="M696 661l0-82-696 0 0 82 696 0z m-182-180l0-82-514 0 0 82 514 0z m182-180l0-82-696 0 0 82 696 0z m-182-180l0-82-514 0 0 82 514 0z" horiz-adv-x="696" />

<glyph glyph-name="align-right" unicode="&#xe817;" d="M1000 100v-71q0-15-11-25t-25-11h-928q-15 0-25 11t-11 25v71q0 15 11 25t25 11h928q15 0 25-11t11-25z m0 214v-71q0-15-11-25t-25-11h-714q-14 0-25 11t-11 25v71q0 15 11 25t25 11h714q15 0 25-11t11-25z m0 215v-72q0-14-11-25t-25-11h-857q-14 0-25 11t-11 25v72q0 14 11 25t25 10h857q15 0 25-10t11-25z m0 214v-72q0-14-11-25t-25-10h-643q-14 0-25 10t-10 25v72q0 14 10 25t25 11h643q15 0 25-11t11-25z" horiz-adv-x="1000" />

<glyph glyph-name="search" unicode="&#xe818;" d="M643 386q0 103-73 176t-177 74-177-74-73-176 73-177 177-73 177 73 73 177z m286-465q0-29-22-50t-50-21q-30 0-50 21l-191 191q-100-69-223-69-80 0-153 31t-125 84-84 125-31 153 31 152 84 126 125 84 153 31 153-31 125-84 84-126 31-152q0-123-69-223l191-191q21-21 21-51z" horiz-adv-x="928.6" />

<glyph glyph-name="basket" unicode="&#xe819;" d="M357-7q0-29-21-50t-50-22-50 22-22 50 22 50 50 21 50-21 21-50z m500 0q0-29-21-50t-50-22-50 22-22 50 22 50 50 21 50-21 21-50z m72 607v-286q0-13-10-23t-22-12l-583-68q7-34 7-40 0-8-13-35h513q15 0 26-11t10-25-10-25-26-11h-571q-14 0-25 11t-11 25q0 6 5 18t9 20 12 22 8 17l-98 459h-114q-15 0-25 10t-11 25 11 26 25 10h143q9 0 16-3t10-9 8-14 4-14 3-17 3-14h670q14 0 25-11t11-25z" horiz-adv-x="928.6" />

<glyph glyph-name="heart-empty" unicode="&#xe81a;" d="M929 517q0 46-12 80t-31 55-46 33-52 18-55 4-62-14-62-36-48-40-34-34q-10-13-27-13t-27 13q-14 15-34 34t-48 40-62 36-62 14-55-4-52-18-46-33-31-55-12-80q0-93 105-198l324-312 324 312q105 105 105 198z m71 0q0-123-128-251l-347-335q-10-10-25-10t-25 10l-348 336q-5 5-15 15t-31 37-38 54-30 67-13 77q0 123 71 192t196 70q34 0 70-12t67-33 54-38 42-38q20 20 42 38t54 38 67 33 70 12q125 0 196-70t71-192z" horiz-adv-x="1000" />

<glyph glyph-name="warehouse" unicode="&#xe840;" d="M475 700l-475-275 100 0 0-400c0-25 22-50 50-50l150 0 0 250c0 28 22 50 50 50l350 0c28 0 49-22 50-50l0-250 150 0c28 0 50 22 50 50l0 400 100 0-475 275c-21 12-42 25-50 25-8 0-28-12-50-25z m-125-475l0-50 350 0 0 50z m0-100l0-50 350 0 0 50z m0-100l0-50 350 0 0 50z" horiz-adv-x="1050" />

<glyph glyph-name="angle-right" unicode="&#xf105;" d="M332 314q0-7-5-12l-261-261q-5-5-12-5t-13 5l-28 28q-6 6-6 13t6 13l219 219-219 220q-6 5-6 12t6 13l28 28q5 6 13 6t12-6l261-260q5-5 5-13z" horiz-adv-x="357.1" />

<glyph glyph-name="percent" unicode="&#xf295;" d="M714 136q0 29-21 50t-50 21-50-21-22-50 22-50 50-22 50 22 21 50z m-428 428q0 29-21 51t-51 21-50-21-21-51 21-50 50-21 51 21 21 50z m571-428q0-89-63-152t-151-63-152 63-62 152 62 151 152 63 151-63 63-151z m-53 607q0-11-8-21l-589-786q-11-15-28-15h-90q-14 0-25 11t-10 25q0 11 7 21l589 786q11 15 29 15h89q14 0 25-11t11-25z m-375-179q0-88-63-151t-152-63-151 63-63 151 63 152 151 63 152-63 63-152z" horiz-adv-x="857.1" />
</font>
</defs>
</svg>
